<svg xmlns="http://www.w3.org/2000/svg" width="231.106" height="227.648" viewBox="0 0 231.106 227.648">
  <g id="iconfinder_icon-74-snowflake_316010" transform="translate(-597 -5)">
    <g id="icon-74-snowflake" transform="translate(181 5)">
      <path id="snowflake" d="M85.116,146.732l23.309-22.96H51.857a4.748,4.748,0,0,1-1.089,1.647L36.493,139.481a5.016,5.016,0,0,1-7.072-.032,4.926,4.926,0,0,1-.033-6.967l8.842-8.71H30.2a5.024,5.024,0,0,1-5.106-4.949,5.082,5.082,0,0,1,5.106-4.949h7.561l-8.376-8.251a4.926,4.926,0,0,1,.033-6.967,5.016,5.016,0,0,1,7.072-.032l14.276,14.062a4.742,4.742,0,0,1,.879,1.188h56.776L85.246,91.044h0a4.881,4.881,0,0,1-1.743.322H63.314a4.926,4.926,0,0,1-4.978-4.949,5.015,5.015,0,0,1,4.978-4.949h12.21l-8.267-8.142a4.943,4.943,0,0,1,.007-6.993,5.076,5.076,0,0,1,7.1-.007l8.23,8.108V62.476a5.018,5.018,0,0,1,5.024-4.9,4.926,4.926,0,0,1,5.024,4.9V82.363a4.683,4.683,0,0,1-.306,1.668l23.193,22.846V51.083h0a4.812,4.812,0,0,1-1.3-.91L99.958,36.11a4.837,4.837,0,0,1,.033-6.967,5.108,5.108,0,0,1,7.072-.032l8.467,8.34V29.825a5.022,5.022,0,0,1,5.024-5.03,5.08,5.08,0,0,1,5.024,5.03v7.907l8.752-8.621a5.109,5.109,0,0,1,7.073.032,4.837,4.837,0,0,1,.032,6.967L127.159,50.172a4.822,4.822,0,0,1-1.582,1.037v55.667h0L148.77,84.03a4.687,4.687,0,0,1-.253-1.519V62.624a4.927,4.927,0,0,1,5.024-4.9,5.017,5.017,0,0,1,5.024,4.9V74.382l8.177-8.056a5.076,5.076,0,0,1,7.1.007,4.943,4.943,0,0,1,.007,6.993l-8.416,8.29h12.413a5.015,5.015,0,0,1,4.978,4.949,4.925,4.925,0,0,1-4.978,4.949H157.657a4.881,4.881,0,0,1-1.888-.38h0l-23.087,22.741h57.062a4.735,4.735,0,0,1,.879-1.188L204.9,98.626a5.016,5.016,0,0,1,7.073.032,4.926,4.926,0,0,1,.032,6.967l-8.376,8.251H210.9a5.024,5.024,0,0,1,5.106,4.949,5.081,5.081,0,0,1-5.106,4.949h-7.742l8.842,8.71a4.926,4.926,0,0,1-.032,6.967,5.017,5.017,0,0,1-7.073.032L190.624,125.42a4.73,4.73,0,0,1-1.088-1.647H132.682l23.355,23.005h0a4.874,4.874,0,0,1,1.469-.227H177.7a4.925,4.925,0,0,1,4.977,4.949,5.014,5.014,0,0,1-4.977,4.949H165.855l7.993,7.873a4.943,4.943,0,0,1-.007,6.993,5.076,5.076,0,0,1-7.1.007l-8.328-8.2v12.325a5.017,5.017,0,0,1-5.024,4.9,4.927,4.927,0,0,1-5.024-4.9V155.554a4.675,4.675,0,0,1,.415-1.926l-23.2-22.857V186.9h0a4.818,4.818,0,0,1,1.582,1.037L141.434,202a4.837,4.837,0,0,1-.032,6.966,5.109,5.109,0,0,1-7.073.033l-8.752-8.621v7.448a5.021,5.021,0,0,1-5.024,5.03,5.079,5.079,0,0,1-5.024-5.03v-7.167L107.063,209a5.107,5.107,0,0,1-7.072-.033A4.837,4.837,0,0,1,99.958,202l14.275-14.062a4.8,4.8,0,0,1,1.3-.911V130.771L92.192,153.759a4.664,4.664,0,0,1,.3,1.648v19.886a4.927,4.927,0,0,1-5.024,4.9,5.017,5.017,0,0,1-5.024-4.9V163.362l-8.081,7.96a5.076,5.076,0,0,1-7.1-.007,4.943,4.943,0,0,1-.007-6.993L75.4,156.3H63.163a5.016,5.016,0,0,1-4.978-4.949,4.925,4.925,0,0,1,4.978-4.949H83.352a4.88,4.88,0,0,1,1.763.329Zm35.438,85.915c63.819,0,115.553-50.96,115.553-113.824S184.372,5,120.553,5,5,55.96,5,118.824,56.735,232.648,120.553,232.648Z" transform="translate(411 -5)" fill="#18aedf" fill-rule="evenodd"/>
    </g>
  </g>
</svg>
